<?xml version="1.0" standalone="no"?>
<!DOCTYPE svg PUBLIC "-//W3C//DTD SVG 20010904//EN"
 "http://www.w3.org/TR/2001/REC-SVG-20010904/DTD/svg10.dtd">
<svg version="1.0" xmlns="http://www.w3.org/2000/svg"
 width="3508.000000pt" height="2481.000000pt" viewBox="0 0 3508.000000 2481.000000"
 preserveAspectRatio="xMidYMid meet">

<g transform="translate(0.000000,2481.000000) scale(0.100000,-0.100000)"
fill="#000000" stroke="none">
<path d="M5947 14610 c-308 -33 -519 -162 -630 -385 -44 -90 -64 -154 -72
-235 -8 -84 -18 -102 -42 -77 -15 15 -18 45 -23 225 -5 195 -7 210 -32 263
-44 96 -124 159 -227 179 -27 5 -289 10 -581 11 l-532 1 -64 -32 c-68 -33
-110 -76 -146 -150 l-23 -45 0 -1970 0 -1970 21 -46 c31 -67 87 -124 152 -156
l57 -28 720 0 c684 0 722 1 769 19 63 24 130 86 164 151 l27 50 7 1130 c7
1105 17 1514 37 1567 6 15 20 32 32 38 31 17 71 -15 83 -66 5 -21 11 -626 15
-1344 l6 -1305 26 -55 c37 -80 72 -115 147 -152 l67 -33 520 0 c510 0 521 0
566 21 87 40 154 118 181 209 5 16 13 611 18 1320 6 710 14 1317 19 1349 11
81 42 104 89 68 19 -15 26 -34 34 -93 6 -45 13 -579 17 -1354 l6 -1280 33 -67
c37 -75 72 -110 152 -147 l55 -26 540 0 c507 0 543 1 589 19 63 24 130 86 164
151 l27 50 8 1455 c11 1706 4 2006 -54 2293 -26 128 -49 175 -121 247 -91 92
-209 143 -393 170 -115 17 -496 24 -650 11 -211 -17 -287 -42 -392 -129 -95
-79 -184 -215 -223 -342 -16 -51 -40 -79 -40 -48 0 33 -83 217 -126 280 -52
77 -138 159 -195 189 -56 28 -138 46 -264 59 -161 15 -417 20 -518 10z"/>
<path d="M16066 14604 c-314 -62 -540 -259 -638 -557 l-33 -102 -11 200 c-9
182 -12 205 -36 257 -33 72 -95 132 -162 157 -48 18 -88 20 -452 25 -783 12
-712 14 -774 -15 -79 -37 -115 -71 -152 -147 l-33 -67 -3 -1154 c-2 -997 0
-1162 13 -1212 29 -114 96 -186 204 -219 60 -19 95 -20 737 -20 436 0 690 4
722 11 107 23 203 108 232 207 14 47 40 1008 29 1040 -17 44 -10 92 15 117 27
27 53 25 90 -10 21 -19 25 -34 30 -106 9 -139 29 -2530 21 -2601 -9 -80 14
-142 66 -179 l34 -24 405 -8 c223 -4 516 -6 651 -5 243 3 246 3 283 28 22 15
46 45 61 75 l23 50 11 1205 c6 663 11 1287 11 1387 l0 181 47 16 c25 9 48 14
51 12 2 -3 14 -627 27 -1389 l22 -1384 25 -55 c28 -60 74 -102 135 -124 55
-19 1191 -19 1246 0 61 22 107 65 136 125 l26 56 6 1465 c4 806 8 1632 9 1835
1 414 -1 431 -68 565 -69 139 -217 260 -372 304 -40 11 -160 20 -434 31 -430
18 -473 15 -613 -50 -196 -90 -300 -209 -388 -440 -6 -16 -11 -7 -25 43 -51
181 -178 335 -345 416 -69 33 -73 34 -340 55 -306 24 -391 25 -489 5z"/>
<path d="M21200 14376 l0 -156 25 0 26 0 -3 153 c-3 149 -3 152 -25 155 l-23
3 0 -155z"/>
<path d="M21460 14376 l0 -156 25 0 26 0 -3 153 c-3 149 -3 152 -25 155 l-23
3 0 -155z"/>
<path d="M21720 14376 l0 -156 25 0 26 0 -3 153 c-3 149 -3 152 -25 155 l-23
3 0 -155z"/>
<path d="M21980 14376 l0 -156 25 0 26 0 -3 153 c-3 149 -3 152 -25 155 l-23
3 0 -155z"/>
<path d="M26013 14413 c-37 -7 -73 -59 -73 -104 l0 -39 -150 -75 -150 -75 -2
-202 -3 -203 -87 -3 c-49 -1 -88 -6 -88 -10 0 -4 93 -5 207 -2 155 3 179 5 96
8 l-113 3 0 202 0 202 148 71 149 71 27 -24 c38 -32 103 -32 139 1 55 51 40
143 -28 172 -19 8 -38 13 -42 13 -4 -1 -18 -4 -30 -6z"/>
<path d="M28006 14388 c-9 -12 -16 -27 -16 -33 0 -6 -31 -26 -70 -45 l-70 -34
0 -88 0 -88 -237 -3 c-131 -1 -47 -2 187 -2 234 0 343 1 243 2 l-183 3 0 85 0
85 67 30 c59 27 68 29 83 15 22 -20 64 -19 84 1 19 18 21 65 4 82 -21 21 -75
15 -92 -10z"/>
<path d="M29060 14259 c-82 -27 -92 -28 -288 -29 l-203 0 -260 -140 -260 -140
-337 -3 -337 -2 340 -3 339 -2 262 140 262 140 198 0 c184 0 204 2 283 26 48
14 90 30 96 35 14 13 0 10 -95 -22z"/>
<path d="M24599 14101 c-23 -23 -29 -38 -29 -71 0 -55 13 -76 60 -100 l40 -20
40 20 c47 24 60 45 60 100 0 58 -42 100 -100 100 -33 0 -48 -6 -71 -29z"/>
<path d="M28355 13874 l-250 -143 -312 -1 -313 0 0 30 c0 137 -189 148 -207
13 l-6 -43 -326 -2 c-179 -1 -297 -4 -261 -7 l65 -6 70 -102 70 -102 192 -1
192 0 16 -31 c33 -63 124 -72 170 -17 58 68 13 168 -75 168 -57 0 -79 -14
-101 -66 l-20 -44 -178 0 c-203 0 -182 -8 -260 107 -68 102 -88 93 200 93
l254 0 28 -30 c24 -25 37 -30 74 -30 36 0 50 6 75 30 l30 30 314 0 314 0 247
143 248 142 280 5 280 6 -280 1 -280 1 -250 -144z"/>
<path d="M28913 13833 c48 -2 125 -2 170 0 45 1 6 3 -88 3 -93 0 -130 -2 -82
-3z"/>
<path d="M28934 13755 c-15 -24 -21 -25 -104 -25 l-88 0 -83 -64 -83 -64 -32
24 c-17 13 -37 24 -44 24 -7 0 23 -27 66 -60 l78 -60 203 0 c173 0 203 -2 203
-15 0 -16 36 -28 70 -23 31 4 48 33 34 56 -15 23 -77 28 -94 8 -10 -14 -44
-16 -211 -16 l-199 0 -31 28 -30 27 82 63 82 62 82 0 c69 0 85 -3 100 -20 37
-41 105 -19 105 34 0 47 -78 63 -106 21z"/>
<path d="M20252 12363 l3 -1368 1365 0 1365 0 3 1368 2 1367 -1370 0 -1370 0
2 -1367z m1978 1017 l0 -300 25 0 25 0 0 300 0 300 95 0 95 0 0 -413 0 -412
-47 -22 c-127 -59 -136 -229 -17 -299 83 -49 196 -17 240 68 11 22 15 49 12
89 -5 69 -38 119 -98 145 l-40 18 0 413 0 413 210 0 210 0 0 -705 0 -705 -225
0 -225 0 0 -25 0 -25 225 0 225 0 0 -30 0 -30 -175 0 -175 0 0 -25 0 -25 175
0 175 0 0 -535 0 -535 -270 0 -270 0 0 181 0 180 -22 -3 c-23 -3 -23 -5 -26
-180 l-2 -178 -35 0 -35 0 0 229 0 229 23 6 c12 3 35 19 51 35 37 38 47 112
22 160 -47 90 -183 95 -236 8 -42 -67 -13 -164 57 -197 l33 -15 0 -227 0 -228
-35 0 -35 0 -2 223 c-3 222 -3 222 -25 225 l-23 3 0 -225 0 -226 -379 0 -379
0 -4 148 c-3 141 -4 150 -34 213 -53 111 -137 189 -252 232 -53 20 -79 21
-409 25 l-353 3 0 175 0 174 574 0 574 0 5 -28 c13 -63 92 -121 167 -122 112
0 202 116 171 221 -24 80 -91 131 -171 131 -76 0 -134 -40 -165 -115 l-15 -37
-570 0 -570 0 0 139 0 140 358 3 357 3 67 32 c77 36 158 107 195 171 33 56 63
153 63 205 1 39 3 43 43 62 105 50 107 204 4 260 -55 29 -129 17 -175 -28 -30
-30 -36 -44 -39 -89 -5 -70 19 -116 76 -143 l42 -20 -4 -67 c-8 -126 -95 -250
-215 -306 l-57 -27 -357 -3 -358 -3 0 351 0 350 170 0 169 0 16 -30 c19 -37
70 -70 108 -70 63 0 127 62 127 123 0 64 -62 127 -125 127 -40 0 -90 -32 -110
-70 l-16 -30 -169 0 -170 0 0 270 0 270 965 0 965 0 0 -300z m-1150 -1806
c115 -54 197 -159 220 -283 5 -29 10 -98 10 -152 l0 -99 -505 0 -505 0 0 286
0 285 358 -3 357 -3 65 -31z"/>
<path d="M26067 13713 c94 -2 252 -2 350 0 98 1 21 2 -172 2 -192 1 -273 -1
-178 -2z"/>
<path d="M28064 13685 c-19 -29 -14 -48 19 -70 51 -33 112 31 72 75 -26 28
-71 26 -91 -5z"/>
<path d="M28790 13648 c-24 -26 -25 -37 -4 -66 19 -28 64 -29 89 -2 16 17 33
20 154 23 l136 3 -137 2 c-84 1 -138 6 -138 12 0 17 -39 50 -60 50 -10 0 -28
-10 -40 -22z"/>
<path d="M24975 13497 c-20 -16 -28 -35 -32 -68 -4 -38 -1 -50 21 -76 14 -17
37 -34 51 -37 l25 -6 0 -268 0 -268 -145 -222 -145 -222 0 -290 0 -291 143
-352 142 -352 5 -395 5 -395 3 391 2 391 -145 359 -145 359 0 285 0 285 145
220 145 220 0 272 c0 259 1 272 19 278 86 27 107 142 35 190 -35 23 -98 19
-129 -8z"/>
<path d="M26343 13458 c-18 -5 -43 -23 -57 -41 -22 -28 -24 -38 -16 -72 12
-55 49 -85 106 -85 34 0 51 6 69 24 79 79 7 203 -102 174z"/>
<path d="M28855 13365 c-174 -77 -196 -84 -257 -84 -65 -1 -66 0 -86 33 -56
95 -200 22 -158 -79 33 -77 133 -74 166 5 12 29 14 30 79 30 61 0 82 7 256 82
137 59 207 84 250 88 l60 7 -60 1 c-54 0 -79 -8 -250 -83z"/>
<path d="M25842 13093 l-2 -293 130 -181 130 -181 0 -112 0 -112 -35 -17 c-19
-9 -41 -30 -50 -48 -53 -102 84 -201 166 -120 52 52 32 148 -36 172 l-35 13 0
117 0 117 -130 180 -130 180 -3 289 -2 288 -3 -292z"/>
<path d="M10680 13155 l0 -65 745 0 745 0 0 65 0 65 -745 0 -745 0 0 -65z"/>
<path d="M19454 13085 c-12 -31 7 -35 162 -35 l154 0 0 25 0 25 -155 0 c-127
0 -157 -3 -161 -15z"/>
<path d="M23470 13075 l0 -26 158 3 c149 3 157 4 157 23 0 19 -8 20 -157 23
l-158 3 0 -26z"/>
<path d="M25460 12948 c1 -7 86 -137 190 -288 l190 -275 0 -384 0 -385 -190
-326 c-104 -179 -190 -333 -190 -341 1 -8 8 0 17 16 9 17 96 168 195 337 l178
307 0 393 0 393 -121 175 c-67 96 -155 224 -195 283 -41 60 -74 103 -74 95z"/>
<path d="M19454 12825 c-12 -31 7 -35 162 -35 l154 0 0 25 0 25 -155 0 c-127
0 -157 -3 -161 -15z"/>
<path d="M23470 12815 l0 -26 158 3 c149 3 157 4 157 23 0 19 -8 20 -157 23
l-158 3 0 -26z"/>
<path d="M25225 11815 c0 -478 1 -676 2 -438 2 237 2 629 0 870 -1 241 -2 47
-2 -432z"/>
<path d="M19457 12633 c-4 -3 -7 -15 -7 -25 0 -17 12 -18 160 -18 l160 0 0 25
0 25 -153 0 c-85 0 -157 -3 -160 -7z"/>
<path d="M23477 12634 c-4 -4 -7 -16 -7 -26 0 -17 12 -18 161 -18 l160 0 -3
23 c-3 22 -6 22 -154 25 -82 1 -153 -1 -157 -4z"/>
<path d="M25638 12268 l-3 -273 -74 -32 c-41 -17 -83 -34 -94 -37 -10 -2 -16
-9 -13 -14 3 -5 31 3 63 18 32 15 75 33 96 41 l37 13 0 278 c0 153 -2 278 -5
278 -3 0 -6 -123 -7 -272z"/>
<path d="M25386 12454 c-21 -21 -26 -36 -26 -74 0 -72 53 -116 125 -102 73 14
103 121 49 176 -21 21 -36 26 -74 26 -38 0 -53 -5 -74 -26z"/>
<path d="M26426 12454 c-21 -21 -26 -36 -26 -74 0 -72 53 -116 125 -102 73 14
103 121 49 176 -21 21 -36 26 -74 26 -38 0 -53 -5 -74 -26z"/>
<path d="M19457 12373 c-4 -3 -7 -15 -7 -25 0 -17 12 -18 160 -18 l160 0 0 25
0 25 -153 0 c-85 0 -157 -3 -160 -7z"/>
<path d="M23477 12374 c-4 -4 -7 -16 -7 -26 0 -17 12 -18 161 -18 l160 0 -3
23 c-3 22 -6 22 -154 25 -82 1 -153 -1 -157 -4z"/>
<path d="M19457 12113 c-4 -3 -7 -15 -7 -25 0 -17 12 -18 160 -18 l160 0 0 25
0 25 -153 0 c-85 0 -157 -3 -160 -7z"/>
<path d="M23477 12114 c-4 -4 -7 -16 -7 -26 0 -17 12 -18 161 -18 l160 0 -3
23 c-3 22 -6 22 -154 25 -82 1 -153 -1 -157 -4z"/>
<path d="M28668 11903 l-108 -4 0 -284 0 -285 745 0 745 0 0 153 c0 85 -3 215
-7 290 l-6 137 -631 -2 c-347 -1 -679 -4 -738 -5z"/>
<path d="M19457 11853 c-4 -3 -7 -15 -7 -25 0 -17 12 -18 160 -18 l160 0 0 25
0 25 -153 0 c-85 0 -157 -3 -160 -7z"/>
<path d="M23477 11854 c-4 -4 -7 -16 -7 -26 0 -17 12 -18 161 -18 l160 0 -3
23 c-3 22 -6 22 -154 25 -82 1 -153 -1 -157 -4z"/>
<path d="M26079 11821 c-57 -57 -31 -158 45 -177 l26 -6 3 -697 2 -696 3 696
2 697 30 12 c42 17 60 47 60 98 0 61 -41 102 -100 102 -33 0 -48 -6 -71 -29z"/>
<path d="M24449 11401 c-22 -23 -29 -39 -29 -69 0 -47 37 -99 73 -104 l22 -3
5 -490 5 -490 3 487 2 488 34 14 c68 28 84 119 31 172 -37 36 -107 34 -146 -5z"/>
<path d="M24780 11049 c-38 -15 -60 -49 -60 -94 0 -49 22 -83 66 -101 l34 -14
3 -298 2 -297 3 303 c2 253 4 302 16 302 24 0 73 48 79 76 16 85 -65 155 -143
123z"/>
<path d="M25825 10600 c0 -195 1 -275 2 -177 2 97 2 257 0 355 -1 97 -2 17 -2
-178z"/>
<path d="M21200 10375 l0 -135 25 0 25 0 0 135 0 135 -25 0 -25 0 0 -135z"/>
<path d="M21460 10375 l0 -135 25 0 25 0 0 135 0 135 -25 0 -25 0 0 -135z"/>
<path d="M21720 10375 l0 -135 25 0 25 0 0 135 0 135 -25 0 -25 0 0 -135z"/>
<path d="M21980 10375 l0 -135 25 0 25 0 0 135 0 135 -25 0 -25 0 0 -135z"/>
</g>
</svg>
